<?xml version="1.0" encoding="utf-8"?>
<!-- Generator: Adobe Illustrator 26.0.3, SVG Export Plug-In . SVG Version: 6.00 Build 0)  -->
<svg version="1.1" id="Laag_1" xmlns="http://www.w3.org/2000/svg" xmlns:xlink="http://www.w3.org/1999/xlink" x="0px" y="0px"
	 viewBox="0 0 2500 2500" style="enable-background:new 0 0 2500 2500;" xml:space="preserve">
<style type="text/css">
	.st0{fill-rule:evenodd;clip-rule:evenodd;fill:#FFFFFF;}
</style>
<g>
	<path class="st0" d="M809.9,1546.9c0,16.3-9.1,25.3-28.6,25.3h-48.2v-49.2h46.7C799.3,1522.9,809.9,1530.3,809.9,1546.9
		L809.9,1546.9z M1110.7,1546.9c0,16.3-9,25.3-27,25.3h-48.2v-49.2h45.2C1100.2,1522.9,1110.7,1530.3,1110.7,1546.9z M1432.7,1587.1
		c0,19.2-4.5,34.3-13.6,47.6c-7.4,13.4-21,19.4-37.5,19.4c-18.1,0-31.6-6-40.7-19.4c-7.4-13.3-12-28.3-12-47.6
		c0-19.4,4.5-34.3,13.4-47.8c7.6-12,21.2-18,39.3-18c16.4,0,30,6,39.1,19.4C1428.7,1555,1432.8,1570.9,1432.7,1587.1z M2361,1587.1
		c0,40.1-21,61-61.8,61h-28.5V1526h28.5C2340,1526,2361,1546.9,2361,1587.1L2361,1587.1z M263.7,1628.9c0-19.4-7.5-34.3-21-44.8
		c-9-7.5-24.1-13.4-45.1-19.4c-7.6-1.5-21-6-37.6-10.4c-16.5-3.1-25.5-10.5-25.5-19.4c0-12,9.1-18,27-18c13.6,0,24.1,3.1,28.6,7.4
		c4.6,4.5,7.6,12,7.6,19.4h58.7c0-23.8-8.9-41.7-27-53.6c-16.5-12-37.6-18-63.2-18c-25.6,0-46.7,6-64.7,16.3
		c-16.5,10.5-25.5,26.8-25.5,49.2c0,19.4,7.5,34.3,21,44.8c9.1,7.4,24,13.4,43.6,20.9c24.1,6,40.7,10.4,51.2,14.9
		c9.1,3.1,13.5,8.9,13.5,18c0,14.9-12,22.3-36.1,22.3c-28.6,0-42.1-12-42.1-34.3H68.2c0,26.9,9,46.3,28.6,59.7
		c18.1,13.4,40.6,19.2,67.7,19.2c28.6,0,52.6-5.8,72.2-17.8C254.7,1673.6,263.7,1654.2,263.7,1628.9L263.7,1628.9z M560.1,1606.4
		v-129.6H503v134.2c0,28.3-13.6,43.2-40.6,43.2c-25.6,0-39.2-14.9-39.2-43.2v-134.2h-57.1v129.6c0,64.3,31.6,96.9,96.3,96.9
		C526.9,1703.3,560.1,1670.7,560.1,1606.4z M873,1697.5c-4.4-4.5-6-10.5-6-20.9c-1.5-10.5-1.5-19.4-1.5-28.5
		c-1.5-13.4-6-25.2-10.5-35.7c-4.5-8.9-12.1-14.9-22.6-17.8c22.6-9.1,34.6-28.4,34.6-56.8c0-20.9-7.4-35.8-22.5-46.1
		c-15-10.5-33.2-14.9-55.7-14.9H674.5v220.8h58.6v-79.1h43.6c10.5,0,19.6,3.1,25.7,8.9c4.4,4.5,7.5,16.5,7.5,35.9
		c0,4.4,0,10.3,1.5,19.2c1.5,7.4,3.1,13.4,4.5,15L873,1697.5L873,1697.5L873,1697.5z M1175.4,1697.5c-3-3.1-5.9-10.5-5.9-20.9
		c-3.1-10.5-3.1-19.4-3.1-28.5c0-11.8-3.1-23.8-9.1-34.3c-4.5-10.4-12-16.3-22.5-19.2c22.5-9.1,34.6-28.4,34.6-56.8
		c0-20.9-7.6-35.8-22.7-46.1c-15.1-10.5-33-14.9-55.6-14.9H976.9v220.8h58.6v-79.1h43.7c10.5,0,19.5,3.1,24.1,8.9
		c4.4,6,7.4,18,7.4,35.9c1.5,5.8,1.5,13.4,4.5,20.9c0,7.4,1.5,11.8,2.9,13.4L1175.4,1697.5L1175.4,1697.5L1175.4,1697.5z
		 M1491.4,1587.1c0-34.3-10.5-61.2-30.1-83.7c-19.6-20.9-45.1-31.2-79.7-31.2c-34.7,0-63.2,10.3-82.8,32.8
		c-19.6,20.9-28.6,47.8-28.6,82.1c0,34.3,10.5,61,30.1,83.5c19.6,22.3,46.7,32.7,81.3,32.7c34.6,0,61.6-11.8,81.2-34.3
		C1482.4,1646.7,1491.4,1619.8,1491.4,1587.1z M1790.8,1606.4v-129.6h-58.7v134.2c0,28.3-12,43.2-37.6,43.2
		c-25.6,0-39.2-14.9-39.2-43.2v-134.2h-60.2v129.6c0,64.3,33.2,96.9,99.4,96.9C1759.3,1703.3,1790.8,1670.7,1790.8,1606.4
		L1790.8,1606.4z M2097.7,1697.5v-220.8h-54.2v135.7l-79.6-135.7h-58.7v220.8h54.1l1.5-137.2l76.7,137.2H2097.7L2097.7,1697.5z
		 M2418.2,1587.1c0-73.2-36.1-110.4-108.4-110.4h-96.2v220.8h96.2C2382.1,1697.5,2418.2,1660.1,2418.2,1587.1L2418.2,1587.1z
		 M1306.5,1156.3v-48.6c0-21.6-10.8-37.8-32.4-37.8h-54v129.6h54C1295.7,1199.5,1306.5,1183.2,1306.5,1156.3L1306.5,1156.3z
		 M1549.4,1161.6v-54c0-16.2-5.4-27-10.8-32.4c-5.4-5.4-16.2-5.4-37.8-5.4c-16.2,0-27,0-32.4,5.4c-5.4,5.4-10.8,16.3-10.8,32.4v54
		c0,16.3,5.4,27.1,10.8,32.4c5.4,5.4,16.2,5.4,32.4,5.4c21.6,0,32.4,0,37.8-5.4C1544,1188.7,1549.4,1177.9,1549.4,1161.6z
		 M1965.1,1177.9c0-16.3-5.4-21.6-27-21.6h-48.6v43.2h48.6C1959.7,1199.5,1965.1,1194,1965.1,1177.9z M1965.1,1086.1
		c0-10.8-10.8-16.2-21.6-16.2h-54v43.2h48.6C1954.3,1113.1,1965.1,1102.3,1965.1,1086.1z M1371.3,1156.3c0,37.8-5.4,59.4-21.6,75.6
		c-10.8,16.2-32.4,21.6-64.8,21.6h-129.6v-237.5h118.8c32.4,0,59.4,10.7,75.6,21.5c10.8,16.3,21.6,37.8,21.6,70.2V1156.3
		L1371.3,1156.3z M1614.2,1167.1c0,32.4-10.8,59.4-32.4,70.2c-16.2,10.8-43.2,16.2-81,16.2c-32.4,0-59.4-5.4-75.6-16.2
		c-21.6-10.8-32.4-37.8-32.4-70.2v-64.8c0-32.4,10.8-59.4,32.4-70.2c16.2-10.8,43.2-16.2,75.6-16.2c37.8,0,64.8,5.4,81,16.2
		c21.6,10.8,32.4,37.8,32.4,70.2L1614.2,1167.1L1614.2,1167.1z M1803.1,1253.4h-161.9v-237.5h64.8v183.5h97.1V1253.4z
		 M2029.8,1188.7c0,27-5.4,43.1-21.6,54c-10.8,5.4-27,10.8-54,10.8h-124.1v-237.5h124.1c21.6,0,43.2,5.4,54,10.7
		c10.8,10.8,16.2,27.1,16.2,48.6c0,32.4-10.8,54-32.4,54v5.4C2019.1,1134.6,2029.8,1156.3,2029.8,1188.7z M2267.4,1015.9l-81,156.5
		v81h-64.8v-81l-86.4-156.5h75.6l37.8,91.7h5.4l43.1-91.7H2267.4z M388.8,1134.6c0-53.9-16.2-102.5-48.6-140.3
		c-32.4-37.8-70.2-54-113.4-54h-81V1329h81c43.2,0,81-16.2,113.4-54C372.6,1237.3,388.8,1188.7,388.8,1134.6L388.8,1134.6z
		 M799.1,1329V940.3h-81c-43.2,0-81,16.3-113.3,54c-32.4,37.8-48.6,86.4-48.6,140.3c0,54,16.2,102.6,48.6,140.4
		c32.4,37.8,70.2,54,113.3,54L799.1,1329L799.1,1329z M64.9,870.2H459v529H64.9V870.2z M491.4,870.2h388.7v529H491.4V870.2z"/>
	<path class="st0" d="M988,870.2h1447v529H988V870.2z M1025.8,1361.4h1371.5V908H1025.8V1361.4L1025.8,1361.4z"/>
</g>
</svg>
