<svg id="Laag_1" data-name="Laag 1" xmlns="http://www.w3.org/2000/svg" viewBox="0 0 2370.1 833.2"><defs><style>.cls-1{fill:#fff;fill-rule:evenodd;}</style></defs><path class="cls-1" d="M809.9,727.4c0,16.3-9.1,25.3-28.6,25.3H733.1V703.5h46.7c19.5-.1,30.1,7.3,30.1,23.9Zm300.8,0c0,16.3-9,25.3-27,25.3h-48.2V703.5h45.2C1100.2,703.4,1110.7,710.8,1110.7,727.4Zm322,40.3c0,19.2-4.5,34.3-13.6,47.6-7.4,13.4-21,19.4-37.5,19.4-18.1,0-31.6-6-40.7-19.4-7.4-13.3-12-28.3-12-47.6s4.5-34.3,13.4-47.8c7.6-12,21.2-18,39.3-18,16.4,0,30,6,39.1,19.4A93.07,93.07,0,0,1,1432.7,767.7Zm928.3,0c0,40.1-21,61-61.8,61h-28.5V706.5h28.5c40.8,0,61.8,20.9,61.8,61.2ZM263.7,809.4c0-19.4-7.5-34.3-21-44.8-9-7.5-24.1-13.4-45.1-19.4-7.6-1.5-21-6-37.6-10.4-16.5-3.1-25.5-10.5-25.5-19.4,0-12,9.1-18,27-18,13.6,0,24.1,3.1,28.6,7.4,4.6,4.5,7.6,12,7.6,19.4h58.7c0-23.8-8.9-41.7-27-53.6q-24.75-18-63.2-18c-25.6,0-46.7,6-64.7,16.3C85,679.4,76,695.7,76,718.1c0,19.4,7.5,34.3,21,44.8,9.1,7.4,24,13.4,43.6,20.9,24.1,6,40.7,10.4,51.2,14.9,9.1,3.1,13.5,8.9,13.5,18,0,14.9-12,22.3-36.1,22.3-28.6,0-42.1-12-42.1-34.3H68.2c0,26.9,9,46.3,28.6,59.7,18.1,13.4,40.6,19.2,67.7,19.2,28.6,0,52.6-5.8,72.2-17.8,18-11.7,27-31.1,27-56.4Zm296.4-22.5V657.3H503V791.5c0,28.3-13.6,43.2-40.6,43.2-25.6,0-39.2-14.9-39.2-43.2V657.3H366.1V786.9c0,64.3,31.6,96.9,96.3,96.9C526.9,883.9,560.1,851.2,560.1,786.9ZM873,878c-4.4-4.5-6-10.5-6-20.9-1.5-10.5-1.5-19.4-1.5-28.5-1.5-13.4-6-25.2-10.5-35.7-4.5-8.9-12.1-14.9-22.6-17.8C855,766,867,746.7,867,718.3c0-20.9-7.4-35.8-22.5-46.1-15-10.5-33.2-14.9-55.7-14.9H674.5V878h58.6V798.9h43.6c10.5,0,19.6,3.1,25.7,8.9,4.4,4.5,7.5,16.5,7.5,35.9a104.74,104.74,0,0,0,1.5,19.2c1.5,7.4,3.1,13.4,4.5,15l57.1.1Zm302.4,0c-3-3.1-5.9-10.5-5.9-20.9-3.1-10.5-3.1-19.4-3.1-28.5a69.59,69.59,0,0,0-9.1-34.3c-4.5-10.4-12-16.3-22.5-19.2,22.5-9.1,34.6-28.4,34.6-56.8,0-20.9-7.6-35.8-22.7-46.1-15.1-10.5-33-14.9-55.6-14.9H976.9V878h58.6V798.9h43.7c10.5,0,19.5,3.1,24.1,8.9,4.4,6,7.4,18,7.4,35.9,1.5,5.8,1.5,13.4,4.5,20.9,0,7.4,1.5,11.8,2.9,13.4Zm316-110.3c0-34.3-10.5-61.2-30.1-83.7-19.6-20.9-45.1-31.2-79.7-31.2s-63.2,10.3-82.8,32.8c-19.6,20.9-28.6,47.8-28.6,82.1s10.5,61,30.1,83.5c19.6,22.3,46.7,32.7,81.3,32.7s61.6-11.8,81.2-34.3S1491.4,800.3,1491.4,767.7Zm299.4,19.2V657.3h-58.7V791.5c0,28.3-12,43.2-37.6,43.2s-39.2-14.9-39.2-43.2V657.3h-60.2V786.9c0,64.3,33.2,96.9,99.4,96.9,64.8.1,96.3-32.6,96.3-96.9ZM2097.7,878V657.3h-54.2V793l-79.6-135.7h-58.7V878h54.1l1.5-137.2L2037.5,878Zm320.5-110.3c0-73.2-36.1-110.4-108.4-110.4h-96.2V878h96.2c72.3,0,108.4-37.4,108.4-110.3ZM1306.5,336.8V288.2c0-21.6-10.8-37.8-32.4-37.8h-54V380h54c21.6,0,32.4-16.3,32.4-43.2Zm242.9,5.3v-54c0-16.2-5.4-27-10.8-32.4s-16.2-5.4-37.8-5.4c-16.2,0-27,0-32.4,5.4s-10.8,16.3-10.8,32.4v54c0,16.3,5.4,27.1,10.8,32.4s16.2,5.4,32.4,5.4c21.6,0,32.4,0,37.8-5.4S1549.4,358.4,1549.4,342.1Zm415.7,16.3c0-16.3-5.4-21.6-27-21.6h-48.6V380h48.6C1959.7,380,1965.1,374.5,1965.1,358.4Zm0-91.8c0-10.8-10.8-16.2-21.6-16.2h-54v43.2h48.6C1954.3,293.6,1965.1,282.8,1965.1,266.6Zm-593.8,70.2c0,37.8-5.4,59.4-21.6,75.6-10.8,16.2-32.4,21.6-64.8,21.6H1155.3V196.5h118.8c32.4,0,59.4,10.7,75.6,21.5,10.8,16.3,21.6,37.8,21.6,70.2v48.6Zm242.9,10.8c0,32.4-10.8,59.4-32.4,70.2q-24.3,16.2-81,16.2c-32.4,0-59.4-5.4-75.6-16.2-21.6-10.8-32.4-37.8-32.4-70.2V282.8c0-32.4,10.8-59.4,32.4-70.2,16.2-10.8,43.2-16.2,75.6-16.2q56.7,0,81,16.2c21.6,10.8,32.4,37.8,32.4,70.2v64.8Zm188.9,86.3H1641.2V196.5H1706V380h97.1Zm226.7-64.7c0,27-5.4,43.1-21.6,54-10.8,5.4-27,10.8-54,10.8H1830.1V196.5h124.1c21.6,0,43.2,5.4,54,10.7,10.8,10.8,16.2,27.1,16.2,48.6,0,32.4-10.8,54-32.4,54v5.4C2019.1,315.2,2029.8,336.8,2029.8,369.2Zm237.6-172.7-81,156.5v81h-64.8V353l-86.4-156.5h75.6l37.8,91.7h5.4l43.1-91.7ZM388.8,315.2c0-53.9-16.2-102.5-48.6-140.3s-70.2-54-113.4-54h-81V509.6h81c43.2,0,81-16.2,113.4-54s48.6-86.4,48.6-140.4ZM799.1,509.5V120.8h-81c-43.2,0-81,16.3-113.3,54s-48.6,86.4-48.6,140.3,16.2,102.6,48.6,140.4,70.2,54,113.3,54ZM64.9,50.7H459v529H64.9Zm426.5,0H880.1v529H491.4Z" transform="translate(-64.9 -50.7)"/><path class="cls-1" d="M988,50.7H2435v529H988Zm37.8,491.2H2397.3V88.5H1025.8V541.9Z" transform="translate(-64.9 -50.7)"/></svg>